<svg xmlns="http://www.w3.org/2000/svg" xmlns:xlink="http://www.w3.org/1999/xlink" width="128" height="128" class="icon" p-id="23553" t="1541687756759" version="1.1" viewBox="0 0 1024 1024"><defs><style type="text/css"/></defs><path d="M952.536971 253.892247 510.501881 0.001023 69.606753 255.868249l1.140985 509.759473 442.03509 253.892247 440.895128-255.867226L952.536971 253.892247zM518.735395 60.115086l334.615676 192.194108c10.814289 6.212486 10.847035 21.801517 0.059352 28.059028L517.893215 474.963004c-5.025452 2.915396-11.228728 2.915396-16.254179 0L168.744558 281.88783c-10.760054-6.241138-10.763124-21.779004-0.004093-28.023212L502.534427 60.151925C507.542483 57.247785 513.716083 57.233458 518.735395 60.115086zM142.14067 322.637889l337.129937 195.531106c4.995776 2.898 8.071831 8.236583 8.071831 14.013141l0 389.354316c0 12.453624-13.467719 20.249163-24.266659 14.04691L126.822815 742.448837c-5.018289-2.882651-8.11788-8.22328-8.131183-14.011094l-0.875949-391.75192C117.787031 324.18615 131.328428 316.366051 142.14067 322.637889zM535.940225 922.418542 535.940225 530.005566c0-5.775534 3.076055-11.115141 8.071831-14.013141l336.351202-195.078805c10.785637-6.255465 24.297358 1.508352 24.326011 13.976302l0.875949 391.786713c0.013303 5.787814-3.062752 11.141747-8.067738 14.04691L560.270328 936.428613C549.470366 942.696357 535.940225 934.904912 535.940225 922.418542z" p-id="23554"/></svg>