<?xml version="1.0" standalone="no"?><!DOCTYPE svg PUBLIC "-//W3C//DTD SVG 1.1//EN" "http://www.w3.org/Graphics/SVG/1.1/DTD/svg11.dtd"><svg t="1541687935877" class="icon" style="" viewBox="0 0 1025 1024" version="1.1" xmlns="http://www.w3.org/2000/svg" p-id="7603" xmlns:xlink="http://www.w3.org/1999/xlink" width="128.125" height="128"><defs><style type="text/css"></style></defs><path d="M154.1994 878.357848l-0.074374 0c-25.463497 0-46.120316-6.351531-63.1785-19.422212C71.929121 844.360477 61.433901 824.240213 60.593476 800.756124l-0.138123-3.446699c-0.51318-13.043057-1.096484-27.831775 3.581634-43.148548 9.545358-31.106351 30.499673-53.989074 62.279639-68.063803 45.761196-20.266887 91.733827-40.074781 137.69477-59.869925l4.74293-2.04422c5.898913-2.545712 11.921073-4.819429 17.943234-7.079333 6.330281-2.401214 12.6595-4.760992 18.798534-7.552138 6.636277-3.03233 8.294814-4.304124 8.697496-4.718493-0.101998 0 0.877612-2.746522 0.51318-13.559424-0.168935-4.775867-1.988971-9.868354-5.55573-15.588769l-7.659449-12.256818c-12.95062-20.696131-26.341109-42.090313-38.679739-63.843616-13.023932-22.954972-22.797724-47.941414-29.031319-74.284648-4.889552-20.609007-6.044473-43.063549-3.529573-68.649232 2.893145-29.390439 10.225348-57.45171 21.794739-83.423075 24.595448-55.148245 59.545867-92.647563 106.857228-114.657987 60.276856-28.032584 121.927504-23.213156 179.033907 14.042854 30.792918 20.094764 55.045184 47.724667 74.142275 84.48131 21.72249 41.861879 32.02965 86.984522 30.639921 134.108886-0.921174 31.736404-12.062384 59.852925-21.664054 80.819989-11.592766 25.31475-26.379359 48.484343-40.522086 70.051711-2.485151 3.776069-5.035113 7.521326-7.5872 11.255958-5.831976 8.56681-11.351582 16.648066-15.817203 24.956692-5.086112 9.467797-6.92846 18.764534-5.467544 27.689402 9.050241 7.336454 20.873565 12.212194 32.235772 16.560942 19.87908 7.650949 39.788972 15.215837 59.698865 22.767975 33.081509 12.572376 66.168331 25.14369 99.109593 38.058186 36.465522 14.286163 60.066484 40.97258 68.266737 77.158668 4.093752 17.992108 4.093752 36.868203-0.02975 54.561753-5.188111 22.125172-20.741817 50.571062-65.442654 60.596664-7.807134 1.744599-16.373945 2.545712-27.000912 2.558462-59.128311 0.072249-118.273621 0.100936-177.411494 0.100936l-258.496041-0.026562L154.1994 878.357848zM436.678898 190.64686c-18.327853 0-37.215636 4.560182-56.139542 13.570049-35.624034 16.924311-62.301951 46.633496-81.583915 90.810528-9.282925 21.288997-15.185025 44.416091-17.520365 68.736356-1.985783 20.671693-1.199545 37.666129 2.477713 53.496082 5.079737 21.933925 13.009057 42.703367 23.562713 61.705897 11.394081 20.544195 24.011081 41.14789 36.205213 61.060969l7.382141 12.068759c7.39489 12.111258 11.198584 23.981332 11.619328 36.304024 1.066734 31.885152-7.129269 46.100129-33.749812 58.491882-6.777587 3.143891-13.753859 5.838351-20.735442 8.532811-5.142424 1.992158-10.293347 3.957754-15.338023 6.175158l-4.553807 2.007033c-43.980473 19.380775-87.990695 38.746675-131.789483 58.575819-18.916469 8.546623-30.774856 21.597117-36.268962 39.868659-2.434151 8.154567-2.055907 17.936859-1.647913 28.319455l0.132811 3.508323c0.365495 10.371971 4.384872 18.217355 12.652062 24.686821 8.602935 6.734025 19.422212 9.878978 34.058995 9.878978l0 21.554618 0.042499-21.554618 123.284297-0.042499 248.161257 0.027625c56.757908 0 113.510504-0.027625 170.269475-0.097749 6.912522-0.015937 12.117633-0.464306 16.369695-1.432229 22.637289-5.178548 28.13777-17.17612 30.396612-27.043411 2.5404-11.12846 2.534025-23.098407-0.027625-34.57855-4.785429-21.583305-17.695675-36.318899-39.490414-45.047207-31.476096-12.615938-63.093502-24.896131-94.71197-37.160386-19.162966-7.438452-38.333369-14.875842-57.467648-22.397168-13.915356-5.460107-29.917431-12.266381-43.748851-24.081205-6.870023-5.867038-11.922136-14.455098-13.562611-22.959222-3.607134-18.693348-0.420744-38.270682 9.219176-56.583661 5.340046-10.145662 11.515204-19.393525 17.486366-28.348142 2.301341-3.452011 4.617557-6.904023 6.856211-10.412346 12.699874-19.787707 25.92674-40.949205 35.848218-63.080752 7.577638-16.911562 16.362257-39.350166 17.036935-62.898005 1.129421-38.97086-7.200456-76.257681-24.755883-110.822419-14.889654-29.287378-33.420442-51.05343-56.666535-66.560388C485.824107 198.815239 461.165973 190.64686 436.678898 190.64686z" p-id="7604"></path><path d="M835.760729 386.796326c32.263396 0 64.533168-0.069061 96.795502 0.056312 4.393372 0.014875 8.93868 0.322995 13.150367 1.473666 11.057274 3.017455 16.853125 11.704326 16.502505 23.759273-0.35062 11.47908-7.318391 19.941767-18.971719 22.481104-4.014065 0.857425-8.197066 1.206982-12.309942 1.206982-64.096487 0.070124-128.180224 0.098811-192.272461-0.042499-4.960739-0.013812-10.14035-0.505742-14.812093-2.020845-11.408956-3.676195-16.51738-12.461878-15.633393-25.205314 0.694865-10.369846 8.000506-18.52335 18.847408-20.628132 3.886567-0.757551 7.921883-1.025297 11.884949-1.03911C771.213749 386.755951 803.490958 386.796326 835.760729 386.796326z" p-id="7605"></path><path d="M856.30705 549.17898c-25.140502 0-50.295879 0.251809-75.428944-0.169997-6.195346-0.098811-12.78381-1.346168-18.412852-3.816443-9.613357-4.266937-13.5148-14.650595-11.352644-26.383609 1.775411-9.598483 9.774855-16.670378 20.90969-18.241792 3.212952-0.449431 6.476904-0.674677 9.717481-0.674677 50.311816-0.041437 100.592821-0.084999 150.903574 0.043562 4.813054 0.01275 9.822667 0.519555 14.411536 1.878472 9.851354 2.904832 15.465521 11.914698 15.156338 22.999596-0.294308 11.536454-6.012598 19.732457-16.432381 22.595852-4.35831 1.208045-9.031116 1.670225-13.577486 1.711662C906.905737 549.262916 881.603737 549.17898 856.30705 549.17898z" p-id="7606"></path><path d="M892.022457 655.804586c-6.802024 0-34.037745 0.059499-61.272404-0.026562-7.846446-0.028687-15.493145-1.264356-21.528056-6.751025-7.859196-7.171769-9.220238-16.265571-6.246345-26.032989 3.087579-10.201974 11.122085-14.410474 20.953252-15.885202 3.058892-0.449431 6.202783-0.548242 9.2893-0.548242 32.853075-0.041437 65.705088-0.126436 98.558163 0.070124 5.381483 0.027625 10.995649 0.757551 16.090261 2.412902 9.470985 3.115204 14.242601 10.988212 14.355225 21.681053 0.112623 10.553656-4.629244 18.847408-13.808045 22.116672-5.037238 1.782849-10.63653 2.708272-16.0042 2.819833C915.540546 656.029833 908.89152 655.804586 892.022457 655.804586z" p-id="7607"></path></svg>