<svg xmlns="http://www.w3.org/2000/svg" xmlns:xlink="http://www.w3.org/1999/xlink" width="128" height="128" class="icon" p-id="7270" t="1542093353196" version="1.1" viewBox="0 0 1024 1024"><defs><style type="text/css">@font-face{font-family:Arial;src:local(&quot;Source Han Sans SC&quot;)}@font-face{font-family:Tahoma;src:local(&quot;Source Han Sans SC&quot;)}@font-face{font-family:Verdana;src:local(&quot;Source Han Sans SC&quot;)}@font-face{font-family:&quot;Helvetica Neue&quot;;src:local(&quot;Source Han Sans SC&quot;)}@font-face{font-family:Helvetica;src:local(&quot;Source Han Sans SC&quot;)}@font-face{font-family:&quot;Segoe UI&quot;;src:local(&quot;Source Han Sans SC&quot;)}@font-face{font-family:Courier;src:local(&quot;Source Code Pro&quot;)}@font-face{font-family:&quot;Courier New&quot;;src:local(&quot;Source Code Pro&quot;)}@font-face{font-family:Consolas;src:local(&quot;Source Code Pro&quot;)}@font-face{font-family:SimSun;src:local(&quot;Source Han Sans SC&quot;)}@font-face{font-family:SimSun-ExtB;src:local(&quot;Source Han Sans SC&quot;)}@font-face{font-family:宋体;src:local(&quot;Source Han Sans SC&quot;)}@font-face{font-family:NSimSun;src:local(&quot;Source Han Sans SC&quot;)}@font-face{font-family:新宋体;src:local(&quot;Source Han Sans SC&quot;)}@font-face{font-family:SimHei;src:local(&quot;Source Han Sans SC&quot;)}@font-face{font-family:黑体;src:local(&quot;Source Han Sans SC&quot;)}@font-face{font-family:&quot;Microsoft YaHei&quot;;src:local(&quot;Source Han Sans SC&quot;)}@font-face{font-family:微软雅黑;src:local(&quot;Source Han Sans SC&quot;)}@font-face{font-family:&quot;STHeiti SC&quot;;src:local(&quot;PingFang SC&quot;)}@font-face{font-family:MingLiU;src:local(&quot;Source Han Sans TC&quot;)}@font-face{font-family:MingLiU-ExtB;src:local(&quot;Source Han Sans TC&quot;)}@font-face{font-family:MingLiU_HKSCS;src:local(&quot;Source Han Sans TC&quot;)}@font-face{font-family:MingLiU_HKSCS-ExtB;src:local(&quot;Source Han Sans TC&quot;)}@font-face{font-family:PMingLiU;src:local(&quot;Source Han Sans TC&quot;)}@font-face{font-family:PMingLiU-ExtB;src:local(&quot;Source Han Sans TC&quot;)}@font-face{font-family:&quot;Microsoft JhengHei&quot;;src:local(&quot;Source Han Sans TC&quot;)}@font-face{font-family:微軟正黑體;src:local(&quot;Source Han Sans TC&quot;)}@font-face{font-family:&quot;STHeiti TC&quot;;src:local(&quot;PingFang TC&quot;)}</style></defs><path d="M753.509 905.313c-53.038 0-121.023-18.959-191.433-53.384-78.678-38.467-159.255-95.406-233.021-164.662-73.853-69.366-134.596-145.192-175.668-219.284-36.998-66.741-57.379-131.4-57.387-182.064-0.006-36.779 10.65-66.239 30.818-85.194 4.536-4.259 9.24-8.905 14.221-13.823 30.162-29.784 67.7-66.852 118.447-66.852 37.736 0 73.366 20.207 108.927 61.776 45.389 53.06 63.118 93.592 57.487 131.421-5.414 36.369-31.352 60.388-56.436 83.615-2.396 2.219-4.825 4.468-7.273 6.761 0.198 3.819 2.821 18.517 28.033 51.204 19.329 25.059 47.82 55.307 84.684 89.902 105.468 98.98 144.43 106.673 153.859 106.673 0.808 0 1.338-0.062 1.641-0.113 2.634-2.477 5.253-4.973 7.832-7.431 27.441-26.154 55.817-53.198 100.474-53.198 34.798 0 73.81 17.221 122.772 54.196 43.278 32.681 65.022 65.833 66.477 101.351 2.108 51.501-38.976 88.165-71.987 117.626-5.227 4.664-10.164 9.07-14.683 13.31-19.882 18.687-49.423 28.17-87.784 28.17zM259.486 184.051c-24.474 0-50.508 25.708-73.479 48.391-5.042 4.979-10.257 10.128-15.368 14.928-6.761 6.354-10.642 20.405-10.639 38.539 0.013 77.048 65.838 216.607 212.866 354.706 69.161 64.933 144.312 118.124 217.321 153.82 61.83 30.229 119.832 46.879 163.321 46.879 29.295 0 40.512-7.57 43.975-10.824 5.12-4.804 10.59-9.685 15.88-14.406 24.151-21.553 51.525-45.982 50.654-67.257-0.604-14.758-14.815-33.049-41.099-52.896-36.263-27.385-64.593-41.27-84.204-41.27-18.195 0-31.825 12.182-56.319 35.527-2.82 2.688-5.687 5.419-8.617 8.171-11.938 11.165-27.486 17.044-45.01 17.044-28.128 0-79.221-12.854-197.656-124.005-37.276-34.983-66.908-66.277-88.072-93.015-30.614-38.673-44.87-68.952-44.864-95.287 0.003-17.785 6.604-33.373 19.087-45.078 2.917-2.742 5.84-5.45 8.717-8.114 19.284-17.857 34.516-31.961 36.617-46.079 2.517-16.907-12.29-44.708-42.818-80.396-22.352-26.129-42.638-39.378-60.293-39.378z" p-id="7271"/></svg>