<?xml version="1.0" standalone="no"?><!DOCTYPE svg PUBLIC "-//W3C//DTD SVG 1.1//EN" "http://www.w3.org/Graphics/SVG/1.1/DTD/svg11.dtd"><svg t="1541733878488" class="icon" style="" viewBox="0 0 1024 1024" version="1.1" xmlns="http://www.w3.org/2000/svg" p-id="27543" xmlns:xlink="http://www.w3.org/1999/xlink" width="128" height="128"><defs><style type="text/css">@font-face { font-family: Arial; src: local("Source Han Sans SC"); }
@font-face { font-family: Tahoma; src: local("Source Han Sans SC"); }
@font-face { font-family: Verdana; src: local("Source Han Sans SC"); }
@font-face { font-family: "Helvetica Neue"; src: local("Source Han Sans SC"); }
@font-face { font-family: Helvetica; src: local("Source Han Sans SC"); }
@font-face { font-family: "Segoe UI"; src: local("Source Han Sans SC"); }
@font-face { font-family: Courier; src: local("Source Code Pro"); }
@font-face { font-family: "Courier New"; src: local("Source Code Pro"); }
@font-face { font-family: Consolas; src: local("Source Code Pro"); }
@font-face { font-family: SimSun; src: local("Source Han Sans SC"); }
@font-face { font-family: SimSun-ExtB; src: local("Source Han Sans SC"); }
@font-face { font-family: 宋体; src: local("Source Han Sans SC"); }
@font-face { font-family: NSimSun; src: local("Source Han Sans SC"); }
@font-face { font-family: 新宋体; src: local("Source Han Sans SC"); }
@font-face { font-family: SimHei; src: local("Source Han Sans SC"); }
@font-face { font-family: 黑体; src: local("Source Han Sans SC"); }
@font-face { font-family: "Microsoft YaHei"; src: local("Source Han Sans SC"); }
@font-face { font-family: 微软雅黑; src: local("Source Han Sans SC"); }
@font-face { font-family: "STHeiti SC"; src: local("PingFang SC"); }
@font-face { font-family: MingLiU; src: local("Source Han Sans TC"); }
@font-face { font-family: MingLiU-ExtB; src: local("Source Han Sans TC"); }
@font-face { font-family: MingLiU_HKSCS; src: local("Source Han Sans TC"); }
@font-face { font-family: MingLiU_HKSCS-ExtB; src: local("Source Han Sans TC"); }
@font-face { font-family: PMingLiU; src: local("Source Han Sans TC"); }
@font-face { font-family: PMingLiU-ExtB; src: local("Source Han Sans TC"); }
@font-face { font-family: "Microsoft JhengHei"; src: local("Source Han Sans TC"); }
@font-face { font-family: 微軟正黑體; src: local("Source Han Sans TC"); }
@font-face { font-family: "STHeiti TC"; src: local("PingFang TC"); }
</style></defs><path d="M803.9 757.5c-1.8-4.9-4.7-9.2-8.3-12.8L562.9 512l232.7-232.7c3.6-3.6 6.4-8 8.3-12.8 1.5-3.9 2.3-8.2 2.3-12.6 0-19.9-16.1-36-36-36-4.4 0-8.7 0.8-12.6 2.3-4.9 1.8-9.2 4.7-12.8 8.3L512 461.1 279.3 228.4c-3.6-3.6-8-6.4-12.8-8.3-3.9-1.5-8.2-2.3-12.6-2.3-19.9 0-36 16.1-36 36 0 4.4 0.8 8.7 2.3 12.6 1.8 4.9 4.7 9.2 8.3 12.8L461.1 512 228.4 744.7c-3.6 3.6-6.4 8-8.3 12.8-1.5 3.9-2.3 8.2-2.3 12.6 0 19.9 16.1 36 36 36 4.4 0 8.7-0.8 12.6-2.3 4.9-1.8 9.2-4.7 12.8-8.3L512 562.9l232.7 232.7c3.6 3.6 8 6.4 12.8 8.3 3.9 1.5 8.2 2.3 12.6 2.3 19.9 0 36-16.1 36-36 0.1-4.5-0.8-8.7-2.2-12.7z" p-id="27544"></path></svg>