<svg xmlns="http://www.w3.org/2000/svg" xmlns:xlink="http://www.w3.org/1999/xlink" width="128" height="128" class="icon" p-id="4749" t="1541768151635" version="1.1" viewBox="0 0 1024 1024"><defs><style type="text/css"/></defs><path d="M441.6 972.8c-256-38.4-428.8-275.2-390.4-531.2 38.4-256 275.2-428.8 531.2-390.4 256 38.4 428.8 275.2 390.4 531.2-38.4 256-275.2 428.8-531.2 390.4z m134.4-864C352 70.4 140.8 224 108.8 448s121.6 435.2 345.6 467.2c224 32 435.2-121.6 467.2-345.6C953.6 352 800 140.8 576 108.8z m147.2 268.8c12.8-12.8 6.4-32-6.4-38.4-12.8-12.8-32-6.4-38.4 6.4l-236.8 288L352 524.8c-6.4-12.8-25.6-19.2-38.4-6.4-12.8 6.4-19.2 25.6-6.4 38.4l115.2 140.8c6.4 12.8 25.6 19.2 38.4 6.4 6.4 0 262.4-326.4 262.4-326.4z" p-id="4750"/></svg>