<svg xmlns="http://www.w3.org/2000/svg" xmlns:xlink="http://www.w3.org/1999/xlink" width="184" height="128" class="icon" p-id="19436" t="1541733603769" version="1.1" viewBox="0 0 1472 1024"><defs><style type="text/css">@font-face{font-family:Arial;src:local(&quot;Source Han Sans SC&quot;)}@font-face{font-family:Tahoma;src:local(&quot;Source Han Sans SC&quot;)}@font-face{font-family:Verdana;src:local(&quot;Source Han Sans SC&quot;)}@font-face{font-family:&quot;Helvetica Neue&quot;;src:local(&quot;Source Han Sans SC&quot;)}@font-face{font-family:Helvetica;src:local(&quot;Source Han Sans SC&quot;)}@font-face{font-family:&quot;Segoe UI&quot;;src:local(&quot;Source Han Sans SC&quot;)}@font-face{font-family:Courier;src:local(&quot;Source Code Pro&quot;)}@font-face{font-family:&quot;Courier New&quot;;src:local(&quot;Source Code Pro&quot;)}@font-face{font-family:Consolas;src:local(&quot;Source Code Pro&quot;)}@font-face{font-family:SimSun;src:local(&quot;Source Han Sans SC&quot;)}@font-face{font-family:SimSun-ExtB;src:local(&quot;Source Han Sans SC&quot;)}@font-face{font-family:宋体;src:local(&quot;Source Han Sans SC&quot;)}@font-face{font-family:NSimSun;src:local(&quot;Source Han Sans SC&quot;)}@font-face{font-family:新宋体;src:local(&quot;Source Han Sans SC&quot;)}@font-face{font-family:SimHei;src:local(&quot;Source Han Sans SC&quot;)}@font-face{font-family:黑体;src:local(&quot;Source Han Sans SC&quot;)}@font-face{font-family:&quot;Microsoft YaHei&quot;;src:local(&quot;Source Han Sans SC&quot;)}@font-face{font-family:微软雅黑;src:local(&quot;Source Han Sans SC&quot;)}@font-face{font-family:&quot;STHeiti SC&quot;;src:local(&quot;PingFang SC&quot;)}@font-face{font-family:MingLiU;src:local(&quot;Source Han Sans TC&quot;)}@font-face{font-family:MingLiU-ExtB;src:local(&quot;Source Han Sans TC&quot;)}@font-face{font-family:MingLiU_HKSCS;src:local(&quot;Source Han Sans TC&quot;)}@font-face{font-family:MingLiU_HKSCS-ExtB;src:local(&quot;Source Han Sans TC&quot;)}@font-face{font-family:PMingLiU;src:local(&quot;Source Han Sans TC&quot;)}@font-face{font-family:PMingLiU-ExtB;src:local(&quot;Source Han Sans TC&quot;)}@font-face{font-family:&quot;Microsoft JhengHei&quot;;src:local(&quot;Source Han Sans TC&quot;)}@font-face{font-family:微軟正黑體;src:local(&quot;Source Han Sans TC&quot;)}@font-face{font-family:&quot;STHeiti TC&quot;;src:local(&quot;PingFang TC&quot;)}</style></defs><path fill="#5E5E5E" d="M416.64 679.232c-31.232 7.04-56.96 6.08-77.504-3.328l-7.296-5.056a122.752 122.752 0 0 0-173.056 0.576l-71.36 71.296a122.816 122.816 0 0 0 0 173.632c50.176 50.176 134.912 52.48 170.688 3.52l158.464-240.64z m52.48-72.512l31.872 37.44-200.448 304.384c-56.32 78.08-178.304 75.008-249.28 4.032a174.016 174.016 0 0 1 0-246.016l71.296-71.36a173.952 173.952 0 0 1 241.28-4.48c18.752 5.888 54.4-1.152 105.28-24z" p-id="19437"/><path fill="#5E5E5E" d="M843.52 635.2l71.36 71.36a174.016 174.016 0 0 1 0 246.016c-71.04 70.976-192.96 74.048-248.704-3.136l-201.088-305.28 31.872-37.44c50.816 22.848 86.528 29.888 105.28 23.936a174.016 174.016 0 0 1 241.28 4.544z m35.2 281.152a122.816 122.816 0 0 0 0-173.632l-71.36-71.296a122.752 122.752 0 0 0-173.056-0.64l-7.296 5.12c-20.608 9.408-46.272 10.304-77.44 3.328l158.464 240.64c35.776 48.896 120.448 46.656 170.624-3.52zM746.944 19.008l45.568 23.296-235.904 461.44-45.632-23.296z" p-id="19438"/><path fill="#5E5E5E" d="M1436.608 396.16L1255.68 577.28 1074.624 396.16z" p-id="19439"/><path fill="#5E5E5E" d="M537.344 640.896l-44.8 24.768L154.752 54.848l44.8-24.768z" p-id="19440"/></svg>