<svg xmlns="http://www.w3.org/2000/svg" xmlns:xlink="http://www.w3.org/1999/xlink" width="128" height="128" class="icon" p-id="22841" t="1541733693520" version="1.1" viewBox="0 0 1024 1024"><defs><style type="text/css">@font-face{font-family:Arial;src:local(&quot;Source Han Sans SC&quot;)}@font-face{font-family:Tahoma;src:local(&quot;Source Han Sans SC&quot;)}@font-face{font-family:Verdana;src:local(&quot;Source Han Sans SC&quot;)}@font-face{font-family:&quot;Helvetica Neue&quot;;src:local(&quot;Source Han Sans SC&quot;)}@font-face{font-family:Helvetica;src:local(&quot;Source Han Sans SC&quot;)}@font-face{font-family:&quot;Segoe UI&quot;;src:local(&quot;Source Han Sans SC&quot;)}@font-face{font-family:Courier;src:local(&quot;Source Code Pro&quot;)}@font-face{font-family:&quot;Courier New&quot;;src:local(&quot;Source Code Pro&quot;)}@font-face{font-family:Consolas;src:local(&quot;Source Code Pro&quot;)}@font-face{font-family:SimSun;src:local(&quot;Source Han Sans SC&quot;)}@font-face{font-family:SimSun-ExtB;src:local(&quot;Source Han Sans SC&quot;)}@font-face{font-family:宋体;src:local(&quot;Source Han Sans SC&quot;)}@font-face{font-family:NSimSun;src:local(&quot;Source Han Sans SC&quot;)}@font-face{font-family:新宋体;src:local(&quot;Source Han Sans SC&quot;)}@font-face{font-family:SimHei;src:local(&quot;Source Han Sans SC&quot;)}@font-face{font-family:黑体;src:local(&quot;Source Han Sans SC&quot;)}@font-face{font-family:&quot;Microsoft YaHei&quot;;src:local(&quot;Source Han Sans SC&quot;)}@font-face{font-family:微软雅黑;src:local(&quot;Source Han Sans SC&quot;)}@font-face{font-family:&quot;STHeiti SC&quot;;src:local(&quot;PingFang SC&quot;)}@font-face{font-family:MingLiU;src:local(&quot;Source Han Sans TC&quot;)}@font-face{font-family:MingLiU-ExtB;src:local(&quot;Source Han Sans TC&quot;)}@font-face{font-family:MingLiU_HKSCS;src:local(&quot;Source Han Sans TC&quot;)}@font-face{font-family:MingLiU_HKSCS-ExtB;src:local(&quot;Source Han Sans TC&quot;)}@font-face{font-family:PMingLiU;src:local(&quot;Source Han Sans TC&quot;)}@font-face{font-family:PMingLiU-ExtB;src:local(&quot;Source Han Sans TC&quot;)}@font-face{font-family:&quot;Microsoft JhengHei&quot;;src:local(&quot;Source Han Sans TC&quot;)}@font-face{font-family:微軟正黑體;src:local(&quot;Source Han Sans TC&quot;)}@font-face{font-family:&quot;STHeiti TC&quot;;src:local(&quot;PingFang TC&quot;)}</style></defs><path d="M512 34.406c-258.765 0-469.3 185.447-469.3 413.287 0 122.88 61.134 237.773 168.04 316.62v225.28l222.002-134.758c26.932 4.096 53.658 6.144 79.36 6.144 258.765 0 469.3-185.446 469.3-413.286C981.299 219.853 770.765 34.406 512 34.406z m0 783.975c-25.805 0-52.838-2.253-80.282-6.861l-7.782-1.331-170.598 103.629v-171.52l-9.114-6.35C143.258 664.987 85.299 560.027 85.299 447.694 85.3 243.303 276.787 77.107 512 77.107c235.315 0 426.7 166.298 426.7 370.586S747.316 818.38 512 818.38z" p-id="22842"/><path d="M292.352 381.338c-35.328 0-64 28.672-64 64s28.672 64 64 64 64-28.672 64-64-28.672-64-64-64zM512 381.338c-35.328 0-64 28.672-64 64s28.672 64 64 64 64-28.672 64-64-28.672-64-64-64zM731.648 381.338c-35.328 0-64 28.672-64 64s28.672 64 64 64 64-28.672 64-64-28.57-64-64-64z" p-id="22843"/></svg>