<?xml version="1.0" standalone="no"?><!DOCTYPE svg PUBLIC "-//W3C//DTD SVG 1.1//EN" "http://www.w3.org/Graphics/SVG/1.1/DTD/svg11.dtd"><svg t="1541766319112" class="icon" style="" viewBox="0 0 1024 1024" version="1.1" xmlns="http://www.w3.org/2000/svg" p-id="1848" xmlns:xlink="http://www.w3.org/1999/xlink" width="128" height="128"><defs><style type="text/css"></style></defs><path d="M499.456 0C223.5904 0 0 223.8464 0 499.968c0 276.0704 223.5904 499.9168 499.456 499.9168 275.8144 0 499.456-223.8464 499.456-499.9168C998.912 223.8464 775.2704 0 499.456 0z m0 949.9136c-248.2688 0-449.536-201.472-449.536-449.9456C49.92 251.392 251.1872 49.9712 499.456 49.9712c248.2688 0 449.536 201.472 449.536 449.9968 0 248.4736-201.2672 449.9456-449.536 449.9456z m226.7136-485.376c-77.7216-52.9408-218.624-132.1984-298.9056-181.248-32.9216-20.8384-60.5696-12.4928-63.232 24.2176-1.9456 98.2528 0 287.7952 0 387.7888 1.6384 37.2224 34.4576 42.1376 62.976 27.136l298.496-180.992c-0.5632-0.3072 61.1328-34.304 0.6656-76.9024z" p-id="1849"></path></svg>