<?xml version="1.0" standalone="no"?><!DOCTYPE svg PUBLIC "-//W3C//DTD SVG 1.1//EN" "http://www.w3.org/Graphics/SVG/1.1/DTD/svg11.dtd"><svg t="1541770542176" class="icon" style="" viewBox="0 0 1024 1024" version="1.1" xmlns="http://www.w3.org/2000/svg" p-id="18923" xmlns:xlink="http://www.w3.org/1999/xlink" width="128" height="128"><defs><style type="text/css"></style></defs><path d="M744.064 535.275c-34.773 69.184-112.17 69.504-112.17 69.504H397.12c-34.133 0-126.784-33.878-110.165-124.096 15.488-83.926 112.426-76.48 112.426-76.48s-13.909-99.584 95.36-114.304c109.227-14.72 136.384 88.597 136.384 88.597 102.976-9.621 147.883 87.637 112.939 156.8zM517.334 85.333h-3.307L128 214.144l66.261 381.013s0 50.71 14.507 79.68c72.768 145.558 245.12 216.214 300.501 242.39 0 0 5.248 2.581 5.974 2.218 1.024 0.491 6.016-2.218 6.016-2.218 55.21-26.176 227.562-96.832 300.48-242.39 14.4-28.97 15.893-79.658 15.893-79.658l66.41-381.035-386.73-128.81z" p-id="18924"></path></svg>