<svg xmlns="http://www.w3.org/2000/svg" xmlns:xlink="http://www.w3.org/1999/xlink" width="128" height="128" class="icon" p-id="45826" t="1541767891819" version="1.1" viewBox="0 0 1024 1024"><defs><style type="text/css"/></defs><path d="M942.9 548.1H77.6c-7.5 0-13.6 6.1-13.6 13.6v102.1c0 7.5 6.1 13.6 13.6 13.6h469c7.5 0 13.6 6.1 13.6 13.6v160.3c0 11.3 12.9 17.7 21.9 10.8l371-283.4c13.1-9.8 6.1-30.6-10.2-30.6zM946.4 346.6h-469c-7.5 0-13.6-6.1-13.6-13.6V172.6c0-11.3-12.9-17.7-21.9-10.8l-371 283.4c-13 9.9-6 30.7 10.4 30.7h865.2c7.5 0 13.6-6.1 13.6-13.6V360.2c-0.1-7.5-6.2-13.6-13.7-13.6z" p-id="45827"/></svg>