<?xml version="1.0" standalone="no"?><!DOCTYPE svg PUBLIC "-//W3C//DTD SVG 1.1//EN" "http://www.w3.org/Graphics/SVG/1.1/DTD/svg11.dtd"><svg t="1541766698755" class="icon" style="" viewBox="0 0 1024 1024" version="1.1" xmlns="http://www.w3.org/2000/svg" p-id="26577" xmlns:xlink="http://www.w3.org/1999/xlink" width="128" height="128"><defs><style type="text/css"></style></defs><path d="M410.027 64.379l56.456 56.455c-216.423 216.423-216.423 567.314 0 783.73799999l-56.456 56.45500001c-247.602-247.602-247.602-649.046 0-896.648zM566.111 220.462l56.45499999 56.456-0.33199999 0.332c-130.037 130.037-130.037 340.869 0 470.906l0.332 0.332-56.455 56.456-0.333-0.332c-161.216-161.217-161.216-422.601 0-583.818l0.333-0.332zM714.888 369.24L858.351 512.703l-143.463 143.463-0.332-0.331c-79.05-79.05-79.05-207.214 0-286.264l0.332-0.331z" fill="#5C626B" p-id="26578"></path></svg>