<svg xmlns="http://www.w3.org/2000/svg" xmlns:xlink="http://www.w3.org/1999/xlink" width="128" height="128" class="icon" p-id="26696" t="1541766709865" version="1.1" viewBox="0 0 1024 1024"><defs><style type="text/css"/></defs><path d="M358.399181 399.986857 239.516584 509.659699l118.882598 109.719914c0 0 45.720298-54.882981 45.720298-109.719914C404.119479 454.778764 358.399181 399.986857 358.399181 399.986857M504.723781 262.814708l-64.023152 63.97608c0 0 73.139787 54.91675 73.139787 182.869934 0 127.999233-73.139787 182.881191-73.139787 182.881191l64.023152 63.999616c0 0 100.580766-118.881574 100.580766-246.880807C605.304548 381.707538 504.723781 262.814708 504.723781 262.814708M788.181645 509.659699c0-210.287377-155.461701-384.028397-155.461701-384.028397l-63.998593 63.97608c0 0 128.020722 128.019699 128.020722 320.052317 0 192.043874-128.020722 320.04106-128.020722 320.04106l63.998593 63.998593C632.720967 893.700375 788.181645 719.982892 788.181645 509.659699" p-id="26697"/></svg>