<?xml version="1.0" standalone="no"?><!DOCTYPE svg PUBLIC "-//W3C//DTD SVG 1.1//EN" "http://www.w3.org/Graphics/SVG/1.1/DTD/svg11.dtd"><svg t="1541687995812" class="icon" style="" viewBox="0 0 1024 1024" version="1.1" xmlns="http://www.w3.org/2000/svg" p-id="9713" xmlns:xlink="http://www.w3.org/1999/xlink" width="128" height="128"><defs><style type="text/css"></style></defs><path d="M925.452543 959.472358c-7.116071 0.001023-14.610766-2.433422-21.473057-8.200776-0.923022-0.776689-2.025123-1.749854-3.464915-3.063779-2.284019-2.084475-5.449106-5.051039-9.676383-9.066493-7.540743-7.167237-18.521842-17.743106-32.638351-31.434943-23.681352-22.971178-56.582693-55.091736-97.789187-95.470375-47.434336-46.482661-95.205339-93.454462-121.370255-119.199823-46.986127 35.420721-123.625622 78.831416-216.971613 78.831416-48.103578 0-94.788853-9.335622-138.758274-27.745924-42.473347-17.785062-80.618109-43.243897-113.373117-75.6694-32.776498-32.448016-58.516742-70.247924-76.505441-112.351857-18.640546-43.62866-28.091802-89.959871-28.091802-137.703245s9.451256-94.074585 28.091802-137.703245c17.9887-42.103934 43.728944-79.903841 76.505441-112.351857 32.755008-32.426527 70.898747-57.885362 113.373117-75.670423 43.969421-18.410302 90.654696-27.745924 138.758274-27.745924s94.788853 9.335622 138.758274 27.745924c42.47437 17.785062 80.618109 43.243897 113.373117 75.670423 32.776498 32.448016 58.517765 70.247924 76.506465 112.351857 18.640546 43.62866 28.091802 89.959871 28.091802 137.703245 0 84.216054-32.461319 165.108408-92.074022 230.962256 26.76662 25.963325 73.072249 70.904886 118.991068 115.583458 41.274032 40.158628 74.16821 72.253604 97.766674 95.39465 14.052041 13.779841 24.942065 24.5133 32.366152 31.905664 4.129041 4.112668 7.189749 7.190773 9.357112 9.414417 4.846378 4.971222 12.170181 12.485359 12.271488 25.544793l0.105401 13.392008-9.473769 9.479909C942.402587 955.779246 934.215114 959.471334 925.452543 959.472358zM422.068781 128.882346c-161.434739 0-292.771997 129.875976-292.771997 289.514813s131.337257 289.514813 292.771997 289.514813c87.643106 0 159.004387-48.65821 195.361433-79.435167l2.085498-1.948375c61.471027-57.413618 95.325066-131.330094 95.325066-208.131271C714.840778 258.758322 583.504544 128.882346 422.068781 128.882346z" p-id="9714"></path></svg>